<mxfile host="Electron" modified="2024-03-25T18:09:46.529Z" agent="Mozilla/5.0 (Macintosh; Intel Mac OS X 10_15_7) AppleWebKit/537.36 (KHTML, like Gecko) draw.io/22.1.2 Chrome/114.0.5735.289 Electron/25.9.4 Safari/537.36" etag="RjFNDtw_jwhGYbB4gZRO" version="22.1.2" type="device">
  <diagram name="Page-1" id="9lbCPC_0ziNbkuC87Svl">
    <mxGraphModel dx="897" dy="674" grid="1" gridSize="10" guides="1" tooltips="1" connect="1" arrows="1" fold="1" page="1" pageScale="1" pageWidth="827" pageHeight="1169" math="0" shadow="0">
      <root>
        <mxCell id="0" />
        <mxCell id="1" parent="0" />
        <mxCell id="8tdzM-dFQOlXanSijI_s-6" style="edgeStyle=none;rounded=0;orthogonalLoop=1;jettySize=auto;html=1;exitX=1;exitY=0.3333333333333333;exitDx=0;exitDy=0;exitPerimeter=0;entryX=0;entryY=0.5;entryDx=0;entryDy=0;" edge="1" parent="1" source="lgveZW18jblFSIelw5Wt-1" target="lgveZW18jblFSIelw5Wt-6">
          <mxGeometry relative="1" as="geometry" />
        </mxCell>
        <mxCell id="8tdzM-dFQOlXanSijI_s-7" style="edgeStyle=none;rounded=0;orthogonalLoop=1;jettySize=auto;html=1;exitX=1;exitY=0.3333333333333333;exitDx=0;exitDy=0;exitPerimeter=0;entryX=0;entryY=0.5;entryDx=0;entryDy=0;" edge="1" parent="1" source="lgveZW18jblFSIelw5Wt-1" target="lgveZW18jblFSIelw5Wt-8">
          <mxGeometry relative="1" as="geometry" />
        </mxCell>
        <mxCell id="8tdzM-dFQOlXanSijI_s-8" style="edgeStyle=none;rounded=0;orthogonalLoop=1;jettySize=auto;html=1;exitX=1;exitY=0.3333333333333333;exitDx=0;exitDy=0;exitPerimeter=0;entryX=0;entryY=0.5;entryDx=0;entryDy=0;" edge="1" parent="1" source="lgveZW18jblFSIelw5Wt-1" target="lgveZW18jblFSIelw5Wt-21">
          <mxGeometry relative="1" as="geometry" />
        </mxCell>
        <mxCell id="lgveZW18jblFSIelw5Wt-1" value="Гость" style="shape=umlActor;verticalLabelPosition=bottom;verticalAlign=top;html=1;outlineConnect=0;" parent="1" vertex="1">
          <mxGeometry x="24" y="350" width="30" height="60" as="geometry" />
        </mxCell>
        <mxCell id="8tdzM-dFQOlXanSijI_s-10" style="edgeStyle=none;rounded=0;orthogonalLoop=1;jettySize=auto;html=1;exitX=0;exitY=0.3333333333333333;exitDx=0;exitDy=0;exitPerimeter=0;entryX=1;entryY=0.5;entryDx=0;entryDy=0;" edge="1" parent="1" source="lgveZW18jblFSIelw5Wt-2" target="lgveZW18jblFSIelw5Wt-16">
          <mxGeometry relative="1" as="geometry" />
        </mxCell>
        <mxCell id="8tdzM-dFQOlXanSijI_s-11" style="edgeStyle=none;rounded=0;orthogonalLoop=1;jettySize=auto;html=1;exitX=0;exitY=0.3333333333333333;exitDx=0;exitDy=0;exitPerimeter=0;entryX=1;entryY=0.5;entryDx=0;entryDy=0;" edge="1" parent="1" source="lgveZW18jblFSIelw5Wt-2" target="lgveZW18jblFSIelw5Wt-17">
          <mxGeometry relative="1" as="geometry" />
        </mxCell>
        <mxCell id="8tdzM-dFQOlXanSijI_s-12" style="edgeStyle=none;rounded=0;orthogonalLoop=1;jettySize=auto;html=1;exitX=0;exitY=0.3333333333333333;exitDx=0;exitDy=0;exitPerimeter=0;entryX=1;entryY=0.5;entryDx=0;entryDy=0;" edge="1" parent="1" source="lgveZW18jblFSIelw5Wt-2" target="lgveZW18jblFSIelw5Wt-15">
          <mxGeometry relative="1" as="geometry" />
        </mxCell>
        <mxCell id="8tdzM-dFQOlXanSijI_s-13" style="edgeStyle=none;rounded=0;orthogonalLoop=1;jettySize=auto;html=1;exitX=0;exitY=0.3333333333333333;exitDx=0;exitDy=0;exitPerimeter=0;entryX=1;entryY=0.5;entryDx=0;entryDy=0;" edge="1" parent="1" source="lgveZW18jblFSIelw5Wt-2" target="lgveZW18jblFSIelw5Wt-14">
          <mxGeometry relative="1" as="geometry" />
        </mxCell>
        <mxCell id="8tdzM-dFQOlXanSijI_s-14" style="edgeStyle=none;rounded=0;orthogonalLoop=1;jettySize=auto;html=1;exitX=0;exitY=0.3333333333333333;exitDx=0;exitDy=0;exitPerimeter=0;entryX=1;entryY=0.5;entryDx=0;entryDy=0;" edge="1" parent="1" source="lgveZW18jblFSIelw5Wt-2" target="lgveZW18jblFSIelw5Wt-20">
          <mxGeometry relative="1" as="geometry" />
        </mxCell>
        <mxCell id="8tdzM-dFQOlXanSijI_s-15" style="edgeStyle=none;rounded=0;orthogonalLoop=1;jettySize=auto;html=1;exitX=0;exitY=0.3333333333333333;exitDx=0;exitDy=0;exitPerimeter=0;entryX=1;entryY=0.5;entryDx=0;entryDy=0;" edge="1" parent="1" source="lgveZW18jblFSIelw5Wt-2" target="lgveZW18jblFSIelw5Wt-13">
          <mxGeometry relative="1" as="geometry" />
        </mxCell>
        <mxCell id="8tdzM-dFQOlXanSijI_s-16" style="edgeStyle=none;rounded=0;orthogonalLoop=1;jettySize=auto;html=1;exitX=0;exitY=0.3333333333333333;exitDx=0;exitDy=0;exitPerimeter=0;entryX=1;entryY=0.5;entryDx=0;entryDy=0;" edge="1" parent="1" source="lgveZW18jblFSIelw5Wt-2" target="lgveZW18jblFSIelw5Wt-12">
          <mxGeometry relative="1" as="geometry" />
        </mxCell>
        <mxCell id="8tdzM-dFQOlXanSijI_s-17" style="edgeStyle=none;rounded=0;orthogonalLoop=1;jettySize=auto;html=1;exitX=0;exitY=0.3333333333333333;exitDx=0;exitDy=0;exitPerimeter=0;entryX=1;entryY=0.5;entryDx=0;entryDy=0;" edge="1" parent="1" source="lgveZW18jblFSIelw5Wt-2" target="lgveZW18jblFSIelw5Wt-23">
          <mxGeometry relative="1" as="geometry" />
        </mxCell>
        <mxCell id="8tdzM-dFQOlXanSijI_s-20" style="edgeStyle=none;rounded=0;orthogonalLoop=1;jettySize=auto;html=1;exitX=1;exitY=0.3333333333333333;exitDx=0;exitDy=0;exitPerimeter=0;entryX=0;entryY=0.5;entryDx=0;entryDy=0;" edge="1" parent="1" source="lgveZW18jblFSIelw5Wt-2" target="8tdzM-dFQOlXanSijI_s-18">
          <mxGeometry relative="1" as="geometry" />
        </mxCell>
        <mxCell id="8tdzM-dFQOlXanSijI_s-21" style="edgeStyle=none;rounded=0;orthogonalLoop=1;jettySize=auto;html=1;exitX=1;exitY=0.3333333333333333;exitDx=0;exitDy=0;exitPerimeter=0;entryX=0;entryY=0.5;entryDx=0;entryDy=0;" edge="1" parent="1" source="lgveZW18jblFSIelw5Wt-2" target="lgveZW18jblFSIelw5Wt-18">
          <mxGeometry relative="1" as="geometry" />
        </mxCell>
        <mxCell id="8tdzM-dFQOlXanSijI_s-22" style="edgeStyle=none;rounded=0;orthogonalLoop=1;jettySize=auto;html=1;exitX=1;exitY=0.3333333333333333;exitDx=0;exitDy=0;exitPerimeter=0;entryX=0;entryY=0.5;entryDx=0;entryDy=0;" edge="1" parent="1" source="lgveZW18jblFSIelw5Wt-2" target="lgveZW18jblFSIelw5Wt-19">
          <mxGeometry relative="1" as="geometry" />
        </mxCell>
        <mxCell id="8tdzM-dFQOlXanSijI_s-23" style="edgeStyle=none;rounded=0;orthogonalLoop=1;jettySize=auto;html=1;exitX=1;exitY=0.3333333333333333;exitDx=0;exitDy=0;exitPerimeter=0;entryX=0;entryY=0.5;entryDx=0;entryDy=0;" edge="1" parent="1" source="lgveZW18jblFSIelw5Wt-2" target="lgveZW18jblFSIelw5Wt-24">
          <mxGeometry relative="1" as="geometry" />
        </mxCell>
        <mxCell id="8tdzM-dFQOlXanSijI_s-27" style="edgeStyle=none;rounded=0;orthogonalLoop=1;jettySize=auto;html=1;exitX=1;exitY=0.3333333333333333;exitDx=0;exitDy=0;exitPerimeter=0;entryX=0;entryY=0.5;entryDx=0;entryDy=0;" edge="1" parent="1" source="lgveZW18jblFSIelw5Wt-2" target="8tdzM-dFQOlXanSijI_s-26">
          <mxGeometry relative="1" as="geometry" />
        </mxCell>
        <mxCell id="8tdzM-dFQOlXanSijI_s-51" style="edgeStyle=none;rounded=0;orthogonalLoop=1;jettySize=auto;html=1;exitX=0;exitY=0.3333333333333333;exitDx=0;exitDy=0;exitPerimeter=0;entryX=1;entryY=0.5;entryDx=0;entryDy=0;" edge="1" parent="1" source="lgveZW18jblFSIelw5Wt-2" target="8tdzM-dFQOlXanSijI_s-50">
          <mxGeometry relative="1" as="geometry" />
        </mxCell>
        <mxCell id="8tdzM-dFQOlXanSijI_s-53" style="edgeStyle=none;rounded=0;orthogonalLoop=1;jettySize=auto;html=1;exitX=1;exitY=0.3333333333333333;exitDx=0;exitDy=0;exitPerimeter=0;entryX=0;entryY=0.5;entryDx=0;entryDy=0;" edge="1" parent="1" source="lgveZW18jblFSIelw5Wt-2" target="8tdzM-dFQOlXanSijI_s-52">
          <mxGeometry relative="1" as="geometry" />
        </mxCell>
        <mxCell id="lgveZW18jblFSIelw5Wt-2" value="Пользователь" style="shape=umlActor;verticalLabelPosition=bottom;verticalAlign=top;html=1;outlineConnect=0;" parent="1" vertex="1">
          <mxGeometry x="560" y="560" width="30" height="60" as="geometry" />
        </mxCell>
        <mxCell id="lgveZW18jblFSIelw5Wt-6" value="Регистрация" style="ellipse;whiteSpace=wrap;html=1;" parent="1" vertex="1">
          <mxGeometry x="114" y="280" width="120" height="70" as="geometry" />
        </mxCell>
        <mxCell id="lgveZW18jblFSIelw5Wt-8" value="Аутентификация" style="ellipse;whiteSpace=wrap;html=1;" parent="1" vertex="1">
          <mxGeometry x="114" y="360" width="120" height="70" as="geometry" />
        </mxCell>
        <mxCell id="lgveZW18jblFSIelw5Wt-12" value="Купить курс" style="ellipse;whiteSpace=wrap;html=1;" parent="1" vertex="1">
          <mxGeometry x="370" y="728" width="120" height="70" as="geometry" />
        </mxCell>
        <mxCell id="lgveZW18jblFSIelw5Wt-13" value="Пройти купленный курс" style="ellipse;whiteSpace=wrap;html=1;" parent="1" vertex="1">
          <mxGeometry x="370" y="654" width="120" height="70" as="geometry" />
        </mxCell>
        <mxCell id="lgveZW18jblFSIelw5Wt-14" value="Получить сертификат о прохождении" style="ellipse;whiteSpace=wrap;html=1;" parent="1" vertex="1">
          <mxGeometry x="370" y="503" width="120" height="70" as="geometry" />
        </mxCell>
        <mxCell id="lgveZW18jblFSIelw5Wt-15" value="Стать преподавателем курса" style="ellipse;whiteSpace=wrap;html=1;" parent="1" vertex="1">
          <mxGeometry x="370" y="428" width="120" height="70" as="geometry" />
        </mxCell>
        <mxCell id="lgveZW18jblFSIelw5Wt-16" value="Создать школу" style="ellipse;whiteSpace=wrap;html=1;" parent="1" vertex="1">
          <mxGeometry x="370" y="277" width="120" height="70" as="geometry" />
        </mxCell>
        <mxCell id="lgveZW18jblFSIelw5Wt-17" value="Оставить отзыв о курсе" style="ellipse;whiteSpace=wrap;html=1;" parent="1" vertex="1">
          <mxGeometry x="370" y="353" width="120" height="70" as="geometry" />
        </mxCell>
        <mxCell id="lgveZW18jblFSIelw5Wt-18" value="Составить собственный курс" style="ellipse;whiteSpace=wrap;html=1;" parent="1" vertex="1">
          <mxGeometry x="640" y="354" width="120" height="70" as="geometry" />
        </mxCell>
        <mxCell id="lgveZW18jblFSIelw5Wt-19" value="Редактировать собственные курсы" style="ellipse;whiteSpace=wrap;html=1;" parent="1" vertex="1">
          <mxGeometry x="640" y="430" width="120" height="70" as="geometry" />
        </mxCell>
        <mxCell id="lgveZW18jblFSIelw5Wt-20" value="Изменить пользовательские данные" style="ellipse;whiteSpace=wrap;html=1;" parent="1" vertex="1">
          <mxGeometry x="370" y="579" width="120" height="70" as="geometry" />
        </mxCell>
        <mxCell id="lgveZW18jblFSIelw5Wt-21" value="Просматривать курсы" style="ellipse;whiteSpace=wrap;html=1;" parent="1" vertex="1">
          <mxGeometry x="114" y="440" width="120" height="70" as="geometry" />
        </mxCell>
        <mxCell id="lgveZW18jblFSIelw5Wt-23" value="Просматривать купленные курсы" style="ellipse;whiteSpace=wrap;html=1;" parent="1" vertex="1">
          <mxGeometry x="370" y="803" width="120" height="70" as="geometry" />
        </mxCell>
        <mxCell id="lgveZW18jblFSIelw5Wt-24" value="Просматривать статистику прохождения купленного курса" style="ellipse;whiteSpace=wrap;html=1;" parent="1" vertex="1">
          <mxGeometry x="630.5" y="505" width="139" height="80" as="geometry" />
        </mxCell>
        <mxCell id="8tdzM-dFQOlXanSijI_s-18" value="Стать преподавателем школы" style="ellipse;whiteSpace=wrap;html=1;" vertex="1" parent="1">
          <mxGeometry x="640" y="280" width="120" height="70" as="geometry" />
        </mxCell>
        <mxCell id="8tdzM-dFQOlXanSijI_s-24" value="Просматривать курсы" style="ellipse;whiteSpace=wrap;html=1;direction=west;" vertex="1" parent="1">
          <mxGeometry x="114" y="590" width="120" height="70" as="geometry" />
        </mxCell>
        <mxCell id="8tdzM-dFQOlXanSijI_s-25" value="Удалять курсы" style="ellipse;whiteSpace=wrap;html=1;direction=west;" vertex="1" parent="1">
          <mxGeometry x="114" y="666" width="120" height="70" as="geometry" />
        </mxCell>
        <mxCell id="8tdzM-dFQOlXanSijI_s-26" value="Удалять собственные курсы" style="ellipse;whiteSpace=wrap;html=1;" vertex="1" parent="1">
          <mxGeometry x="640" y="590" width="120" height="70" as="geometry" />
        </mxCell>
        <mxCell id="8tdzM-dFQOlXanSijI_s-28" value="Просматривать пользователей" style="ellipse;whiteSpace=wrap;html=1;direction=west;" vertex="1" parent="1">
          <mxGeometry x="114" y="742" width="120" height="70" as="geometry" />
        </mxCell>
        <mxCell id="8tdzM-dFQOlXanSijI_s-29" value="Удалять пользователей" style="ellipse;whiteSpace=wrap;html=1;direction=west;" vertex="1" parent="1">
          <mxGeometry x="114" y="816" width="120" height="70" as="geometry" />
        </mxCell>
        <mxCell id="8tdzM-dFQOlXanSijI_s-30" value="Просматривать школы" style="ellipse;whiteSpace=wrap;html=1;direction=west;" vertex="1" parent="1">
          <mxGeometry x="114" y="892" width="120" height="70" as="geometry" />
        </mxCell>
        <mxCell id="8tdzM-dFQOlXanSijI_s-31" value="Удалять школы" style="ellipse;whiteSpace=wrap;html=1;direction=west;" vertex="1" parent="1">
          <mxGeometry x="114" y="967" width="120" height="70" as="geometry" />
        </mxCell>
        <mxCell id="8tdzM-dFQOlXanSijI_s-42" style="edgeStyle=none;rounded=0;orthogonalLoop=1;jettySize=auto;html=1;exitX=1;exitY=0.3333333333333333;exitDx=0;exitDy=0;exitPerimeter=0;entryX=1;entryY=0.5;entryDx=0;entryDy=0;" edge="1" parent="1" source="8tdzM-dFQOlXanSijI_s-39" target="8tdzM-dFQOlXanSijI_s-24">
          <mxGeometry relative="1" as="geometry" />
        </mxCell>
        <mxCell id="8tdzM-dFQOlXanSijI_s-43" style="edgeStyle=none;rounded=0;orthogonalLoop=1;jettySize=auto;html=1;exitX=1;exitY=0.3333333333333333;exitDx=0;exitDy=0;exitPerimeter=0;entryX=1;entryY=0.5;entryDx=0;entryDy=0;" edge="1" parent="1" source="8tdzM-dFQOlXanSijI_s-39" target="8tdzM-dFQOlXanSijI_s-25">
          <mxGeometry relative="1" as="geometry" />
        </mxCell>
        <mxCell id="8tdzM-dFQOlXanSijI_s-44" style="edgeStyle=none;rounded=0;orthogonalLoop=1;jettySize=auto;html=1;exitX=1;exitY=0.3333333333333333;exitDx=0;exitDy=0;exitPerimeter=0;entryX=1;entryY=0.5;entryDx=0;entryDy=0;" edge="1" parent="1" source="8tdzM-dFQOlXanSijI_s-39" target="8tdzM-dFQOlXanSijI_s-28">
          <mxGeometry relative="1" as="geometry" />
        </mxCell>
        <mxCell id="8tdzM-dFQOlXanSijI_s-45" style="edgeStyle=none;rounded=0;orthogonalLoop=1;jettySize=auto;html=1;exitX=1;exitY=0.3333333333333333;exitDx=0;exitDy=0;exitPerimeter=0;entryX=1;entryY=0.5;entryDx=0;entryDy=0;" edge="1" parent="1" source="8tdzM-dFQOlXanSijI_s-39" target="8tdzM-dFQOlXanSijI_s-29">
          <mxGeometry relative="1" as="geometry" />
        </mxCell>
        <mxCell id="8tdzM-dFQOlXanSijI_s-46" style="edgeStyle=none;rounded=0;orthogonalLoop=1;jettySize=auto;html=1;exitX=1;exitY=0.3333333333333333;exitDx=0;exitDy=0;exitPerimeter=0;entryX=1;entryY=0.5;entryDx=0;entryDy=0;" edge="1" parent="1" source="8tdzM-dFQOlXanSijI_s-39" target="8tdzM-dFQOlXanSijI_s-30">
          <mxGeometry relative="1" as="geometry" />
        </mxCell>
        <mxCell id="8tdzM-dFQOlXanSijI_s-47" style="edgeStyle=none;rounded=0;orthogonalLoop=1;jettySize=auto;html=1;exitX=1;exitY=0.3333333333333333;exitDx=0;exitDy=0;exitPerimeter=0;entryX=1;entryY=0.5;entryDx=0;entryDy=0;" edge="1" parent="1" source="8tdzM-dFQOlXanSijI_s-39" target="8tdzM-dFQOlXanSijI_s-31">
          <mxGeometry relative="1" as="geometry" />
        </mxCell>
        <mxCell id="8tdzM-dFQOlXanSijI_s-49" style="edgeStyle=none;rounded=0;orthogonalLoop=1;jettySize=auto;html=1;exitX=1;exitY=0.3333333333333333;exitDx=0;exitDy=0;exitPerimeter=0;entryX=1;entryY=0.5;entryDx=0;entryDy=0;" edge="1" parent="1" source="8tdzM-dFQOlXanSijI_s-39" target="8tdzM-dFQOlXanSijI_s-48">
          <mxGeometry relative="1" as="geometry" />
        </mxCell>
        <mxCell id="8tdzM-dFQOlXanSijI_s-39" value="Администратор" style="shape=umlActor;verticalLabelPosition=bottom;verticalAlign=top;html=1;outlineConnect=0;" vertex="1" parent="1">
          <mxGeometry x="30" y="756" width="30" height="60" as="geometry" />
        </mxCell>
        <mxCell id="8tdzM-dFQOlXanSijI_s-48" value="Удалять уроки" style="ellipse;whiteSpace=wrap;html=1;direction=west;" vertex="1" parent="1">
          <mxGeometry x="114" y="1043" width="120" height="70" as="geometry" />
        </mxCell>
        <mxCell id="8tdzM-dFQOlXanSijI_s-50" value="Аутентификация" style="ellipse;whiteSpace=wrap;html=1;" vertex="1" parent="1">
          <mxGeometry x="370" y="203" width="120" height="70" as="geometry" />
        </mxCell>
        <mxCell id="8tdzM-dFQOlXanSijI_s-52" value="Просматривать курсы" style="ellipse;whiteSpace=wrap;html=1;" vertex="1" parent="1">
          <mxGeometry x="640" y="203" width="120" height="70" as="geometry" />
        </mxCell>
      </root>
    </mxGraphModel>
  </diagram>
</mxfile>
